<?xml version="1.0" encoding="utf-8"?>
<!-- Generator: Adobe Illustrator 17.0.2, SVG Export Plug-In . SVG Version: 6.00 Build 0)  -->
<!DOCTYPE svg PUBLIC "-//W3C//DTD SVG 1.1//EN" "http://www.w3.org/Graphics/SVG/1.1/DTD/svg11.dtd">
<svg version="1.1" id="Layer_1" xmlns="http://www.w3.org/2000/svg" xmlns:xlink="http://www.w3.org/1999/xlink" x="0px" y="0px"
	 width="700px" height="700px" viewBox="0 0 700 700" enable-background="new 0 0 700 700" xml:space="preserve">
<rect x="104.365" y="198.838" fill="none" width="515" height="326"/>
<text transform="matrix(1 0 0 1 104.3653 373.8369)" fill="#FFFFFF" font-family="'PTMono-Regular'" font-size="250">J </text>
<g id="diner_coffee_pot">
	<path fill="#FFFFFF" d="M394.128,304.112c-4.627-36.555-35.744-64.808-73.432-64.808c-37.692,0-68.805,28.253-73.439,64.808
		c-0.39,3.096-0.592,6.256-0.592,9.454c0,25.58,12.892,48.138,32.512,61.496h83.034c19.62-13.358,32.512-35.916,32.512-61.496
		c0-3.199-0.206-6.359-0.599-9.454H394.128z"/>
	<path fill="#221F1F" d="M320.696,247.899c-33.299,0-60.787,23.354-64.879,53.562h129.758
		C381.482,271.252,353.995,247.9,320.696,247.899L320.696,247.899z"/>
	<path fill="#FFFFFF" d="M350.481,244.427c0,1.301-1.064,2.365-2.365,2.365h-54.842c-1.301,0-2.365-1.064-2.365-2.365v-9.932
		c0-1.301-0.295-3.388-0.656-4.638l-7.717-26.717c-0.361-1.25,0.382-2.037,1.65-1.749l63.984,14.529
		c1.269,0.288,2.307,1.588,2.307,2.889v25.617H350.481z"/>
	<path fill="#FFFFFF" d="M429.28,315.703c0.995-0.839,0.954-2.159-0.09-2.934l-12.92-9.594c-1.044-0.775-2.068-2.46-2.275-3.744
		l-12.511-77.609c-0.207-1.285-1.44-2.335-2.742-2.335h-50.707c-1.301,0-2.365,1.064-2.365,2.365v17.077
		c0,1.301,1.057,2.238,2.348,2.083l37.839-4.545c1.292-0.155,2.575,0.757,2.852,2.029l14.821,68
		c0.277,1.271,1.385,2.907,2.463,3.635l14.636,9.887c1.078,0.729,2.774,0.638,3.768-0.2l4.885-4.112V315.703z"/>
</g>
<rect x="419.72" y="198.838" fill="none" width="249.551" height="224.148"/>
<text transform="matrix(1 0 0 1 419.7201 373.837)" fill="#FFFFFF" font-family="'PTMono-Regular'" font-size="250">e</text>
</svg>
